HIERARCHY
ROOT Hips
{
	OFFSET 0.0000 0.0000 0.0000
	CHANNELS 6 Xposition Yposition Zposition Zrotation Xrotation Yrotation
	JOINT Ab
	{
		OFFSET -0.0000 8.0846 -0.0000
		CHANNELS 3 Zrotation Xrotation Yrotation
		JOINT Chest
		{
			OFFSET -0.0000 25.0068 -0.0000
			CHANNELS 3 Zrotation Xrotation Yrotation
			JOINT Neck
			{
				OFFSET -0.0000 25.0068 0.0000
				CHANNELS 3 Zrotation Xrotation Yrotation
				JOINT Head
				{
					OFFSET -0.0000 10.7556 0.0000
					CHANNELS 3 Zrotation Xrotation Yrotation
					End Site
					{
						OFFSET -0.0000 16.6222 0.0000
					}
				}
			}
			JOINT LeftCollar
			{
				OFFSET -0.0000 25.0068 0.0000
				CHANNELS 3 Zrotation Xrotation Yrotation
				JOINT LeftShoulder
				{
					OFFSET 19.5556 -0.0000 0.0000
					CHANNELS 3 Zrotation Xrotation Yrotation
					JOINT LeftElbow
					{
						OFFSET 27.1828 0.0000 0.0000
						CHANNELS 3 Zrotation Xrotation Yrotation
						JOINT LeftWrist
						{
							OFFSET 23.3157 0.0000 0.0000
							CHANNELS 3 Zrotation Xrotation Yrotation
							End Site
							{
								OFFSET 0.0000 -14.6667 0.0000
							}
						}
					}
				}
			}
			JOINT RightCollar
			{
				OFFSET -0.0000 25.0068 0.0000
				CHANNELS 3 Zrotation Xrotation Yrotation
				JOINT RightShoulder
				{
					OFFSET -19.5556 0.0000 0.0000
					CHANNELS 3 Zrotation Xrotation Yrotation
					JOINT RightElbow
					{
						OFFSET -27.1828 0.0000 0.0000
						CHANNELS 3 Zrotation Xrotation Yrotation
						JOINT RightWrist
						{
							OFFSET -23.3157 0.0000 0.0000
							CHANNELS 3 Zrotation Xrotation Yrotation
							End Site
							{
								OFFSET -0.0000 -14.6667 0.0000
							}
						}
					}
				}
			}
		}
	}
	JOINT LeftHip
	{
		OFFSET 11.7333 0.0000 0.0000
		CHANNELS 3 Zrotation Xrotation Yrotation
		JOINT LeftKnee
		{
			OFFSET -0.0000 -40.8688 0.0000
			CHANNELS 3 Zrotation Xrotation Yrotation
			JOINT LeftAnkle
			{
				OFFSET -0.0000 -44.4337 0.0000
				CHANNELS 3 Zrotation Xrotation Yrotation
				End Site
				{
					OFFSET -0.0000 -4.8889 16.6222
				}
			}
		}
	}
	JOINT RightHip
	{
		OFFSET -11.7333 0.0000 0.0000
		CHANNELS 3 Zrotation Xrotation Yrotation
		JOINT RightKnee
		{
			OFFSET -0.0000 -40.8688 0.0000
			CHANNELS 3 Zrotation Xrotation Yrotation
			JOINT RightAnkle
			{
				OFFSET -0.0000 -44.4337 0.0000
				CHANNELS 3 Zrotation Xrotation Yrotation
				End Site
				{
					OFFSET -0.0000 -4.8889 16.6222
				}
			}
		}
	}
}
MOTION
Frames: 15
Frame Time: 0.010000
0.2319 88.1546 58.2263 2.6648 358.5664 182.3883 4.8060 5.4561 358.7605 354.8910 8.2543 359.3651 1.2609 349.9161 357.3651 7.1267 18.3052 356.0878 340.1029 358.3457 9.6210 299.2964 17.6726 1.8627 11.4898 355.8413 319.9654 84.8310 358.4613 334.3112 21.5180 359.2800 356.3180 46.1700 45.3882 19.1377 337.3927 352.7194 35.6173 276.7986 351.0467 16.3461 3.8902 355.9987 356.0999 358.1048 15.6883 354.7614 357.4180 348.3996 22.0509 3.7076 342.6056 4.6481 359.6488 24.2502 9.3123 353.7545 348.6002 336.6195 
0.0822 88.1446 58.0807 2.7739 358.5706 182.1682 4.7585 5.3112 358.7527 354.7060 8.0244 359.3477 1.1887 349.9645 357.3994 7.4344 18.4573 356.0729 340.1172 358.3252 9.8175 299.2307 17.0259 2.2683 11.2234 355.9686 320.0569 85.1418 358.4107 333.9925 21.6905 359.2905 356.4376 45.8938 45.4452 19.3071 337.6854 352.8552 35.5368 276.8890 350.9588 16.6750 3.9421 356.2183 356.1520 358.0628 15.5370 354.9164 357.5099 348.3642 22.0339 3.7931 342.5926 4.6549 359.5842 24.4087 9.5253 353.6898 348.5379 336.5764 
-0.0778 88.1406 57.9414 2.8479 358.5523 181.9798 4.8209 5.0472 358.6646 354.3305 7.9906 359.2764 1.1300 349.8914 357.4541 7.7596 18.6170 356.0474 340.2188 358.3037 9.9786 299.1720 16.5589 2.5698 11.0750 356.0087 320.1867 85.4875 358.3843 334.0397 21.8926 359.3080 356.5695 45.7009 45.4079 19.4599 338.0396 352.9878 35.5140 276.8703 350.9603 17.2401 3.9374 356.3840 356.1567 358.0219 15.4313 355.0550 357.5444 348.3041 22.0316 3.8346 342.5421 4.5800 359.4810 24.5962 9.8140 353.5859 348.5089 336.5094 
-0.2437 88.1440 57.8050 2.9102 358.5373 181.7854 4.7914 4.8595 358.6621 354.0857 7.9023 359.2858 1.0514 349.7557 357.4976 8.0247 18.7909 356.0233 340.2504 358.2619 10.1992 299.1545 16.3525 2.7953 11.0833 355.9780 320.3505 85.3296 358.4633 333.8516 21.9929 359.3087 356.5405 45.3622 45.6821 19.8361 338.2155 353.0566 35.3685 276.9586 350.9601 17.5920 3.9036 356.5284 356.3006 358.0277 15.3926 354.9500 357.6375 348.2131 22.1429 3.8387 342.5106 4.5467 359.4306 24.7499 10.1102 353.5837 348.4314 336.4314 
-0.4118 88.1556 57.6657 2.9612 358.5364 181.5697 4.7634 4.6238 358.6697 353.8532 8.0331 359.3224 0.9815 349.4069 357.4298 8.2501 19.0248 355.9532 340.3594 358.2544 10.3434 299.0965 16.2912 2.8573 11.1376 355.9603 320.5808 85.3270 358.4719 333.7853 21.9893 359.2989 356.4434 45.2188 45.6257 20.1710 338.4988 353.1540 35.3686 276.9423 351.0264 18.1168 3.8622 356.7292 356.2507 357.9703 15.2830 355.0026 357.8755 348.1714 22.3648 3.8283 342.5372 4.5430 359.3904 24.8263 10.3790 353.6542 348.4296 336.4207 
-0.5772 88.1658 57.5316 3.0378 358.4684 181.3811 4.7070 4.4381 358.7338 353.6788 7.8454 359.3427 0.9983 349.4001 357.4499 8.4125 19.0863 355.8960 340.3862 358.2434 10.3712 299.1076 15.8369 3.1611 11.0005 356.0436 320.5990 85.2840 358.6734 333.4755 22.0276 359.2898 356.3921 45.1573 45.8429 20.2549 338.7614 353.2634 35.2043 276.8099 350.9340 18.1900 3.8445 356.8894 356.1848 357.9312 15.1083 355.1263 357.8608 348.1328 22.4286 3.8597 342.4297 4.5766 359.3566 25.0186 10.6058 353.6275 348.3106 336.2946 
-0.7387 88.1788 57.4112 3.1408 358.3515 181.2191 4.7555 4.2789 358.7495 353.4189 7.5243 359.3387 0.9599 349.4840 357.3778 8.6400 19.1479 355.8295 340.4201 358.2406 10.3433 299.1485 15.6414 3.4978 11.0153 356.0350 320.7278 84.9635 358.8464 332.9743 22.1287 359.2866 356.3778 45.3948 45.7250 19.9598 339.1825 353.4304 35.2359 276.6812 350.9356 18.7128 3.8556 356.9930 356.2128 357.9188 14.8976 355.3564 357.8875 348.1218 22.3129 3.9331 342.2385 4.4970 359.2514 25.2787 10.8290 353.6463 348.1511 336.2582 
-0.8940 88.1865 57.2946 3.2435 358.2299 181.0662 4.8751 4.0847 358.6729 353.0805 7.2545 359.2703 0.8763 349.6006 357.4044 8.9205 19.1607 355.7839 340.5055 358.2354 10.3829 299.1614 15.4379 3.7637 11.0257 356.0519 320.9434 84.8284 358.8080 332.6519 22.2420 359.2917 356.4220 45.5228 45.8447 19.7643 339.4737 353.5261 35.1748 276.7271 350.9420 19.1136 3.8627 357.0907 356.3332 357.9434 14.6794 355.4971 357.9390 348.1266 22.1991 4.0043 342.0318 4.4348 359.1750 25.5393 10.9839 353.6444 347.9752 336.2271 
-1.0389 88.1898 57.1672 3.3650 358.1651 180.8700 4.9010 3.9986 358.6808 352.8784 6.9198 359.2838 0.8617 349.6994 357.4393 9.0798 19.2269 355.7885 340.5395 358.2308 10.4190 299.2132 15.1001 4.0839 10.8829 356.1587 321.0797 84.8963 358.8312 332.2383 22.2782 359.2921 356.4918 45.7260 46.0779 19.5035 339.7219 353.6015 35.1338 276.6660 350.9765 19.4859 3.9041 357.2948 356.4876 357.9579 14.3989 355.5572 358.0276 348.1624 22.1830 4.1190 341.8606 4.4593 359.1056 25.8593 11.1042 353.7105 347.7842 336.1988 
-1.1802 88.1862 57.0280 3.5092 358.1267 180.7030 5.0025 3.8837 358.6322 352.6527 6.7050 359.2368 0.8104 349.7275 357.4507 9.2594 19.3320 355.7874 340.6177 358.2399 10.4512 299.2324 15.0477 4.3103 10.9778 356.1087 321.1604 84.4854 359.0578 332.0453 22.2748 359.3094 356.5587 46.0620 46.0502 19.1678 340.0389 353.7064 35.1933 276.8173 351.0397 20.0323 3.9672 357.5489 356.6595 357.9776 14.0896 355.5222 358.0109 348.1596 22.1933 4.2428 341.6889 4.4900 359.0784 26.2579 11.1522 354.0003 347.3666 336.2396 
-1.3231 88.1826 56.8899 3.6025 358.0486 180.4836 5.0488 3.7593 358.6136 352.4171 6.4115 359.2048 0.7643 349.8313 357.5344 9.4563 19.4589 355.8333 340.6662 358.2223 10.5245 299.2853 14.8866 4.5899 10.8712 356.1721 321.1793 84.6551 359.1914 331.8513 22.3036 359.3363 356.7016 46.3542 46.2539 18.8045 340.2792 353.7691 35.2081 276.8296 351.1197 20.4964 3.9637 357.8066 356.8215 358.0121 13.7084 355.6773 357.9544 348.1380 22.1085 4.3396 341.3869 4.5463 359.0100 26.8119 11.3371 354.0831 347.0813 336.1475 
-1.4515 88.1726 56.7427 3.7083 358.0444 180.2986 5.0379 3.7186 358.6207 352.2842 6.1629 359.1994 0.7799 349.8884 357.5751 9.5632 19.5818 355.8435 340.7129 358.2197 10.5437 299.3473 14.7948 4.7950 10.8304 356.1950 321.2329 84.5036 359.2849 331.6937 22.2759 359.3392 356.7384 46.6927 46.3810 18.4750 340.4982 353.8183 35.2555 276.9516 351.2697 20.8560 3.9844 358.1382 356.9818 358.0419 13.3384 355.7055 358.0038 348.1738 22.0998 4.4435 341.1292 4.5971 358.9703 27.4176 11.3217 354.0700 346.8357 336.1529 
-1.5717 88.1561 56.5723 3.8558 358.1823 180.1940 5.1003 3.7970 358.5674 352.1400 5.9650 359.1451 0.8292 349.9529 357.5993 9.6120 19.6772 355.8411 340.7683 358.2193 10.4689 299.4190 14.6273 5.0310 10.6720 356.2600 321.2437 84.5741 359.2922 331.5877 22.2536 359.3557 356.7104 46.9930 46.5008 18.1864 340.7323 353.8866 35.2771 277.0228 351.2699 21.1744 4.0371 358.6141 357.0654 358.0823 12.9585 355.7283 358.0053 348.1889 22.0788 4.5706 341.0035 4.6058 358.9711 28.0851 11.0694 354.3938 346.5084 336.3656 
-1.6917 88.1410 56.4195 3.9649 358.2195 180.0860 5.1804 3.8111 358.4760 351.9242 5.7059 359.0473 0.8048 350.0463 357.6567 9.7769 19.7963 355.8665 340.7898 358.2000 10.5789 299.5689 15.0370 5.1018 10.9242 356.0998 321.3476 84.0430 359.3665 331.7447 22.2728 359.3483 356.7381 47.2600 46.8294 17.9007 340.8296 353.8870 35.1771 277.1084 351.0958 21.3839 4.0468 358.9697 357.1252 358.1335 12.5802 355.8501 357.9720 348.2165 21.9851 4.6477 340.7017 4.6530 358.9766 28.8398 11.1072 354.8007 345.8430 336.2561 
-1.7877 88.1219 56.2222 4.0510 358.3536 179.9314 5.1401 3.8885 358.4361 351.8219 5.4462 358.9982 0.7888 350.1702 357.7228 9.9472 19.9203 355.8952 340.6434 358.1137 11.2065 299.9069 17.9634 4.7121 12.5046 355.3413 322.0223 83.5325 359.1212 333.7914 22.2990 359.3472 356.7940 47.6310 47.0317 17.4797 341.0058 353.9431 35.1860 277.2634 351.1618 21.5357 4.0732 359.4885 357.2044 358.1382 12.1711 355.6988 358.0220 348.2282 22.1885 4.7300 340.4736 4.7311 359.0510 29.6386 10.8701 354.7734 345.6507 336.0437 
